<?xml version="1.0" encoding="UTF-8" standalone="no"?>
<svg width="76px" height="56px" viewBox="0 0 76 56" version="1.1" xmlns="http://www.w3.org/2000/svg" xmlns:xlink="http://www.w3.org/1999/xlink">
    <!-- Generator: Sketch 47.1 (45422) - http://www.bohemiancoding.com/sketch -->
    <title>Group</title>
    <desc>Created with Sketch.</desc>
    <defs>
        <linearGradient x1="18.3072039%" y1="50%" x2="88.2542666%" y2="50%" id="linearGradient-1">
            <stop stop-color="#BC4E9C" offset="0%"></stop>
            <stop stop-color="#F80759" offset="100%"></stop>
        </linearGradient>
    </defs>
    <g id="Page-1" stroke="none" stroke-width="1" fill="none" fill-rule="evenodd">
        <g id="Group" fill-rule="nonzero">
            <g id="noun_370929_cc" fill="url(#linearGradient-1)">
                <path d="M11.7,31.8 C12.4,31.4 12.8,30.7 12.8,29.9 C12.8,29.1 12.3,28.4 11.7,28 L11.7,20.6 L38.7,33.3 L75.5,15.3 L38.1,0.4 L0.5,15.5 L9.7,19.8 C9.7,19.8 9.7,19.8 9.7,19.8 L9.7,28.1 C9,28.5 8.6,29.2 8.6,30 C8.6,30.8 9.1,31.5 9.7,31.9 L9.7,36.2 C7.1,43.3 5.4,55.7 10.8,55.7 C16.1,55.7 14,43 11.7,35.9 L11.7,31.8 Z M18.6,26.2 L20,40.2 C20,42.8 28.1,48.3 38.1,48.3 C48.1,48.3 56.2,42.7 56.2,40.2 L57.7,26.4 L38.7,35.7 L18.6,26.2 Z" id="Shape"></path>
            </g>
            <g id="noun_78743_cc" transform="translate(24.000000, 6.000000)" fill="#FFFFFF">
                <path d="M14.4900111,3.57463897 C19.1770556,3.57463897 23.4487556,5.25106186 26.7244667,8 L29,5.55996602 C25.1201222,2.28836204 20.0531778,0 14.4900111,0 C8.93457778,0 3.87536667,2.28187505 0,5.54544752 L2.27037778,7.98795274 C5.54383333,5.24210364 9.8078,3.57463897 14.4900111,3.57463897" id="Shape"></path>
                <path d="M14.9948807,10.45964 C17.873586,10.45964 20.5055734,11.4181084 22.5351333,13 L25,10.4991275 C22.3171497,8.38265942 18.8247874,7 14.9948807,7 C11.1702584,7 7.6828503,8.3793688 5,10.488059 L7.46189415,12.9913247 C9.49244488,11.4163135 12.1194782,10.45964 14.9948807,10.45964" id="Shape"></path>
                <path d="M20,16.7925352 C18.6456467,15.7326356 16.9010781,15 14.9972314,15 C13.094036,15 11.3520732,15.7305164 10,16.7858749 L14.9972314,22 L20,16.7925352 Z" id="Shape"></path>
            </g>
        </g>
    </g>
</svg>